<?xml version="1.0" encoding="utf-8"?>
<!-- Generator: Adobe Illustrator 26.5.0, SVG Export Plug-In . SVG Version: 6.00 Build 0)  -->
<svg version="1.1" id="Capa_1" xmlns="http://www.w3.org/2000/svg" xmlns:xlink="http://www.w3.org/1999/xlink" x="0px" y="0px"
	 viewBox="0 0 16 16" style="enable-background:new 0 0 16 16;" xml:space="preserve">
<style type="text/css">
	.st0{fill:#1AAADA;}
</style>
<path class="st0" d="M15.6,0.2C15.9,0.4,16,0.7,16,1v2.2v8.2c0,1.4-1.3,2.5-3,2.5s-3-1.1-3-2.5S11.3,9,13,9c0.4,0,0.7,0.1,1,0.1V4.6
	L6,7v6.5C6,14.9,4.7,16,3,16s-3-1.1-3-2.5S1.3,11,3,11c0.3,0,0.7,0.1,1,0.1V6.2V4c0-0.4,0.3-0.8,0.7-1l10-3C15,0,15.3,0,15.6,0.2z"
	/>
</svg>
